<svg xmlns="http://www.w3.org/2000/svg" viewBox="0 0 120 120"><defs><linearGradient id="champ" x1="26" y1="30" x2="94" y2="92" gradientUnits="userSpaceOnUse"><stop offset="0" stop-color="#e2c48a"/><stop offset=".5" stop-color="#c2a468"/><stop offset="1" stop-color="#8f7548"/></linearGradient><linearGradient id="tile" x1="0" y1="0" x2="120" y2="120" gradientUnits="userSpaceOnUse"><stop offset="0" stop-color="#1c1c21"/><stop offset="1" stop-color="#121216"/></linearGradient></defs><circle cx="60" cy="60" r="58" fill="url(#tile)"/><circle cx="60" cy="60" r="54" fill="none" stroke="url(#champ)" stroke-opacity="0.45" stroke-width="1.4"/><g transform="translate(60 62) scale(0.06357 -0.06357) translate(-613.00 -313.50)" fill="url(#champ)"><path d="M115.64971923828125 81V544Q115.64971923828125 573 109.82473754882812 587.5Q103.999755859375 602 86.57479858398438 607.5Q69.14984130859375 613 34.74993896484375 613Q32.2999267578125 613 32.2999267578125 619.0Q32.2999267578125 625 34.74993896484375 625Q59.64996337890625 625 90.27499389648438 623.5Q120.9000244140625 622 154.7000732421875 622Q191.05010986328125 622 221.400146484375 623.5Q251.75018310546875 625 275.65020751953125 625Q278.1002197265625 625 278.1002197265625 619.0Q278.1002197265625 613 275.65020751953125 613Q241.25030517578125 613 224.05035400390625 607.0Q206.85040283203125 601 200.8004150390625 586.0Q194.75042724609375 571 194.75042724609375 542V81Q194.75042724609375 52 200.3004150390625 37.0Q205.85040283203125 22 223.32534790039062 17.0Q240.80029296875 12 275.65020751953125 12Q278.55023193359375 12 278.55023193359375 6.0Q278.55023193359375 0 275.65020751953125 0Q250.75018310546875 0 220.900146484375 1.0Q191.05010986328125 2 154.7000732421875 2Q120.9000244140625 2 89.54998779296875 1.0Q58.199951171875 0 33.2999267578125 0Q31.2999267578125 0 31.2999267578125 6.0Q31.2999267578125 12 33.2999267578125 12Q68.14984130859375 12 85.84979248046875 17.0Q103.54974365234375 22 109.5997314453125 37.0Q115.64971923828125 52 115.64971923828125 81ZM370.2999267578125 145 218.45025634765625 340.44976806640625 277.55072021484375 391.600341796875 425.600830078125 199.35003662109375Q469.000732421875 142.15008544921875 499.0256652832031 106.10009765625Q529.0505981445312 70.05010986328125 549.4755554199219 50.375091552734375Q569.9005126953125 30.7000732421875 585.5504760742188 22.525054931640625Q601.200439453125 14.35003662109375 615.8004150390625 13.175018310546875Q630.400390625 12 648.0503540039062 12Q651.0503540039062 12 651.0503540039062 6.0Q651.0503540039062 0 648.0503540039062 0Q603.5003662109375 0 576.5003662109375 0.0Q549.5003662109375 0 536.0503540039062 0Q525.4502563476562 0 518.0251770019531 -0.725006103515625Q510.60009765625 -1.45001220703125 504.25006103515625 -1.45001220703125Q490.7000732421875 -1.45001220703125 481.800048828125 3.54998779296875Q472.9000244140625 8.54998779296875 461.04998779296875 23.54998779296875Q449.199951171875 38.54998779296875 428.2999267578125 67.54998779296875Q407.39990234375 96.54998779296875 370.2999267578125 145ZM142.9000244140625 277.799560546875 400.35003662109375 537.399658203125Q437.9000244140625 574.9496459960938 431.14996337890625 593.9748229980469Q424.39990234375 613 372.74993896484375 613Q370.2999267578125 613 370.2999267578125 619.0Q370.2999267578125 625 372.74993896484375 625Q398.0999755859375 625 424.1750183105469 623.5Q450.25006103515625 622 492.95013427734375 622Q534.9002685546875 622 559.3253479003906 623.5Q583.7504272460938 625 606.4505004882812 625Q609.4505004882812 625 609.4505004882812 619.0Q609.4505004882812 613 606.4505004882812 613Q567.0503540039062 613 517.5502319335938 593.3748474121094Q468.05010986328125 573.7496948242188 424.7000732421875 531.399658203125L168.25006103515625 276.99951171875Z"/><path transform="translate(502 0)" d="M546.4996337890625 0Q530.399658203125 0 493.8747253417969 38.324981689453125Q457.34979248046875 76.64996337890625 405.94989013671875 148.47494506835938Q354.54998779296875 220.2999267578125 290.60009765625 319.2999267578125L358.400634765625 340.15008544921875Q441.7005615234375 219.15008544921875 500.1255187988281 146.97506713867188Q558.5504760742188 74.800048828125 603.6504516601562 43.4000244140625Q648.7504272460938 12 690.400390625 12Q692.9503784179688 12 692.9503784179688 6.0Q692.9503784179688 0 690.400390625 0Q634.1500854492188 0 598.6748962402344 0.0Q563.19970703125 0 546.4996337890625 0ZM306.2001953125 628Q389.95037841796875 628 434.50048828125 592.5750427246094Q479.05059814453125 557.1500854492188 479.05059814453125 497.7000732421875Q479.05059814453125 442 447.15057373046875 397.8749694824219Q415.25054931640625 353.74993896484375 363.75054931640625 328.74993896484375Q312.25054931640625 303.74993896484375 252.5006103515625 303.74993896484375Q241.25054931640625 303.74993896484375 228.12551879882812 304.2999267578125Q215.00048828125 304.84991455078125 204.1004638671875 305.84991455078125V81Q204.1004638671875 52 209.65045166015625 37.0Q215.200439453125 22 232.67538452148438 17.0Q250.15032958984375 12 285.000244140625 12Q287.55023193359375 12 287.55023193359375 6.0Q287.55023193359375 0 285.000244140625 0Q260.1002197265625 0 230.02517700195312 1.0Q199.95013427734375 2 163.60009765625 2Q129.800048828125 2 98.67501831054688 1.0Q67.54998779296875 0 42.64996337890625 0Q40.199951171875 0 40.199951171875 6.0Q40.199951171875 12 42.64996337890625 12Q77.4998779296875 12 94.97482299804688 17.0Q112.44976806640625 22 118.77474975585938 37.0Q125.0997314453125 52 125.0997314453125 81V544Q125.0997314453125 573 119.27474975585938 587.5Q113.44976806640625 602 96.24981689453125 607.5Q79.04986572265625 613 44.199951171875 613Q41.64996337890625 613 41.64996337890625 619.0Q41.64996337890625 625 44.199951171875 625Q68.54998779296875 625 99.17501831054688 623.5Q129.800048828125 622 163.60009765625 622Q195.5001220703125 622 235.82510375976562 625.0Q276.15008544921875 628 306.2001953125 628ZM396.94989013671875 465.74993896484375Q396.94989013671875 522 381.9249572753906 553.5499877929688Q366.9000244140625 585.0999755859375 339.5751647949219 598.2499389648438Q312.25030517578125 611.39990234375 274.800537109375 611.39990234375Q237.00048828125 611.39990234375 220.55047607421875 597.4998779296875Q204.1004638671875 583.599853515625 204.1004638671875 542V331.0999755859375Q218.1004638671875 329.64996337890625 234.37545776367188 328.64996337890625Q250.65045166015625 327.64996337890625 263.200439453125 327.64996337890625Q337.05010986328125 327.64996337890625 367.0 362.0749206542969Q396.94989013671875 396.4998779296875 396.94989013671875 465.74993896484375Z"/></g></svg>